<svg xmlns="http://www.w3.org/2000/svg" viewBox="0 0 94.1 95.7"><defs><style>.cls-1{fill:#015339;}.cls-2{fill:#fff;}.cls-3{fill:#62d347;}</style></defs><title>bel-logo</title><g id="Layer_2" data-name="Layer 2"><g id="Layer_1-2" data-name="Layer 1"><g id="Bel_logo" data-name="Bel logo"><path class="cls-1" d="M74.1,9.1C67.2,5.3,56.8,0,48.4,0,35,0,24.2,1.9,15.5,10.8S-.8,35.6.1,49.2c.4,6.7,2.1,13.2,3.8,19.1,3.1,11.5,10.5,17,21,22.2,6.3,3.2,17.7,5.2,25.2,5.2s16.6-3.5,24-7.4c10-5.2,20-19.3,20-37.4s-5-33.4-20-41.8"/><path class="cls-2" d="M47.8,29.7c.4-2.2,2-4.3,4.1-4.3s2.1.4,2.1,1.5-.1,1.5-1.9,2.2a13.7,13.7,0,0,1-4.2.6h-.1M29.3,37.8a5.8,5.8,0,0,1-2.6-.6V32.1c0-3.9,1.4-6.1,4-6.1s3.4,1.5,3.6,4.3,0,7.4-5,7.5m47.6-1.2c0-.2-.2-.7-.6-.5s-3.9,2.7-6.2.9c-.6-.5-.6-1.7-.6-3.7s-.3-22-.3-22V11c0-.1-.1-.2-.1-.3l-.4-.2H63.6a.5.5,0,0,0-.5.5V29.8c0,5.3-4.8,8.1-10,8.1-2.7,0-4.4-1.1-5.1-3.2h.7c7.1,0,11.5-2.9,11.4-7.6h0v-.3c-.3-3.7-3.7-6.3-8.1-6.3h-.1c-5.3,0-9.1,3.1-10.2,8.4l-1.4-.4c-.8-4.9-4.1-8-8.6-8h0a8.2,8.2,0,0,0-5.4,1.8V11l-.2-.3-.3-.2H20.6a.5.5,0,0,0-.5.5l.6,29.8c0,.2.1.3.3.4h.1a17.1,17.1,0,0,0,8.4,2h0c6.2,0,10.3-3.7,11-9.8l.9.2a10.4,10.4,0,0,0,3.7,7.2,12,12,0,0,0,7.7,2.4,18.7,18.7,0,0,0,11.4-4.4,6.1,6.1,0,0,0,6.2,4.3h.1a14.4,14.4,0,0,0,6.8-1.9.9.9,0,0,0,.3-.7Z"/><path class="cls-2" d="M78.7,24.5a6.4,6.4,0,0,0-1.3-3.3,3.5,3.5,0,0,0-3.2-1.5,2,2,0,0,0-1.7,2,2.5,2.5,0,0,0,1.8,2.4,3.3,3.3,0,0,1,2,1.9,4.2,4.2,0,0,1,.5,3.2.2.2,0,0,0,0,.3h.1a.2.2,0,0,0,.3,0,7.4,7.4,0,0,0,1.5-5"/><path class="cls-3" d="M86.2,27.2H86c-7.2-.1-8.3,6.7-8.3,6.7V34H78c7.9.3,8.2-6.7,8.2-6.7a.1.1,0,0,0,0-.2"/><path class="cls-3" d="M21.6,55.9a5.9,5.9,0,0,1-.4.8l-.6.4-.8.2-.8-.2-.6-.5a5.9,5.9,0,0,1-.4-.8,2.5,2.5,0,0,1-.1-.9,2.3,2.3,0,0,1,.5-1.7,1.7,1.7,0,0,1,1.4-.6l.7.2c.3.1.4.3.6.5a1.6,1.6,0,0,1,.4.7,2.9,2.9,0,0,1,.2.9,3.1,3.1,0,0,1-.1,1m1.5-4.5h0a6,6,0,0,0-1.5-.9,4.5,4.5,0,0,0-3.6,0,3.8,3.8,0,0,0-1.5.9,5.4,5.4,0,0,0-1,1.6,5.8,5.8,0,0,0-.3,1.9,6.4,6.4,0,0,0,.3,2,4,4,0,0,0,1,1.5,4.5,4.5,0,0,0,1.4,1,5.8,5.8,0,0,0,1.9.4,5.8,5.8,0,0,0,1.8-.4,4,4,0,0,0,1.5-1,5.6,5.6,0,0,0,1-1.5,6.4,6.4,0,0,0,.3-2A3.8,3.8,0,0,0,24,53a5.1,5.1,0,0,0-.9-1.6m6.1-.7v-.5H26.7a.3.3,0,0,0-.3.3v8.8c0-.1,0,.2.3.2h2.4c.1,0,.1-.1.1-.2V55.4c0-.5,0-1.9,1.1-2.4a2.7,2.7,0,0,1,1.6.1.2.2,0,0,0,.3-.1c0-.2.7-2.2.7-2.5s0-.2-.2-.3a4.4,4.4,0,0,0-3.5.5"/><path class="cls-3" d="M10.6,44.7C9,46.5,9,49.6,9,49.6H7.7c-.1,0,0,.1,0,.1v2.1a.1.1,0,0,0,.1.1h.8a28.3,28.3,0,0,0,1.1,8.2h.2l2.3-.3.2-.2a23.7,23.7,0,0,1-1-7.9h1.9a.1.1,0,0,0,.1-.1c0-.1.1-1.9.1-2s0-.1-.1-.1H11.7a5,5,0,0,1,1-3.2,2.2,2.2,0,0,1,2.2-.2h.2c.1-.5.4-1.5.4-1.7s.1-.2-.1-.2-3.4-1.1-4.8.6"/><path class="cls-3" d="M54.8,58.7c-1.5.8-2,.3-2.2.2s-.2-.2-.2-.8c.1-7.1.1-10.7,0-11.4s0-.2-.1-.2l-3.2.2c-.1,0-.3.1-.3.2s.1,7.9,0,10.6,1.6,4.2,2.1,4.4a4.1,4.1,0,0,0,1.6.3h1.4l1.1-.3.7-.3h0a18.3,18.3,0,0,0-.8-2.8h-.1"/><path class="cls-3" d="M62.8,58.8h-.1c-1.5.8-2,.6-2.2.5s-.2-.2-.2-.8c.2-7.1,0-8.5,0-9.2a.2.2,0,0,0-.2-.2l-3.2.2a.2.2,0,0,0-.2.2c0,1.2.1,5.7,0,8.4s1.6,4.2,2.1,4.4a4.5,4.5,0,0,0,1.6.3,6.5,6.5,0,0,0,1.4,0l1.1-.3.7-.3h0a21.1,21.1,0,0,0-.8-3.2h0"/><path class="cls-3" d="M43.3,56.7l-.5.4a1.9,1.9,0,0,1-1.5,0,1,1,0,0,1-.5-.4,1.6,1.6,0,0,1-.4-.7,3,3,0,0,1-.2-1,3.4,3.4,0,0,1,.1-1,4.3,4.3,0,0,1,.4-.7l.6-.4.7-.2.8.2h.4Zm4,.5h-.6c-.4,0-.4-.4-.4-.7V50.4a.1.1,0,0,0-.1-.1l-4.3-.4a3.8,3.8,0,0,0-1.9.4,5.8,5.8,0,0,0-1.5,1.1,5.6,5.6,0,0,0-.9,1.7,3.4,3.4,0,0,0-.3,2,6.4,6.4,0,0,0,.3,2,6.2,6.2,0,0,0,1,1.6A4.2,4.2,0,0,0,40,59.8a4.8,4.8,0,0,0,1.8.3h1.1l.9-.4.4-.3c.7.9,2.6.6,2.9.5s.3-.1.3-.3V57.4a.1.1,0,0,0-.1-.1h-.1"/><path class="cls-3" d="M70.9,74.3h0l-.9.5h-.5a2.7,2.7,0,0,1-1.6-.4,2.7,2.7,0,0,1-.7-.8,3.6,3.6,0,0,1-.4-1.1,3.3,3.3,0,0,1,0-1.4,5,5,0,0,1,.5-1.3,3.6,3.6,0,0,1,.7-1l.9-.5H70a1.9,1.9,0,0,1,1.1.5l.7.6h0Zm3.2,4.6c.2,0,.4-.1.4-.3s1.1-2.1,1.2-2.4-.1-.2-.2-.3h-.8c-.4-.1-.4-.4-.3-.9s2.5-13.5,2.5-13.7,0-.2-.1-.3l-3.2-.4c-.1,0-.2,0-.2.3s-1,4.9-1,5h-.1a4.9,4.9,0,0,0-2.1-.8,4.9,4.9,0,0,0-2.4.2,7.1,7.1,0,0,0-2.1,1.1,7,7,0,0,0-1.5,1.9,7.4,7.4,0,0,0-1,2.6,12.2,12.2,0,0,0,0,2.7,5.8,5.8,0,0,0,.8,2.2,8.1,8.1,0,0,0,1.6,1.6,5.8,5.8,0,0,0,2.2.8,5.9,5.9,0,0,0,2.7-.3l.7-.4h.1c.3,1.3,2.7,1.4,2.8,1.4"/><path class="cls-3" d="M57.4,73.8a3.6,3.6,0,0,1-.5.9,1.6,1.6,0,0,1-.8.6l-1,.2-1-.2-.8-.6a3.1,3.1,0,0,1-.5-1,2.5,2.5,0,0,1-.2-1.2,3.2,3.2,0,0,1,.7-2.2,2.1,2.1,0,0,1,1.8-.7l.9.2.8.6.6,1a4.1,4.1,0,0,1,.1,1.2,4.5,4.5,0,0,1-.1,1.2m1.7-5.5a7.1,7.1,0,0,0-1.8-1.2,5.7,5.7,0,0,0-2.2-.4,5.1,5.1,0,0,0-2.2.4,5.5,5.5,0,0,0-3,3,7,7,0,0,0-.5,2.5,5.9,5.9,0,0,0,.5,2.3A5.2,5.2,0,0,0,51,76.8,5.7,5.7,0,0,0,52.8,78a5.9,5.9,0,0,0,2.3.4,5.4,5.4,0,0,0,2.2-.4,5.7,5.7,0,0,0,1.8-1.2,6.2,6.2,0,0,0,1.2-1.9,7.4,7.4,0,0,0,0-4.8,5.7,5.7,0,0,0-1.2-1.8M44.5,74.8a4.1,4.1,0,0,1-.5.9l-.8.6-1,.2a1.7,1.7,0,0,1-1-.3,1.3,1.3,0,0,1-.7-.6,2.1,2.1,0,0,1-.6-1,3.6,3.6,0,0,1-.2-1.1,2.9,2.9,0,0,1,.7-2.2,2.2,2.2,0,0,1,1.8-.8,1.9,1.9,0,0,1,1,.3,2.1,2.1,0,0,1,.8.6,2.6,2.6,0,0,1,.5.9,4,4,0,0,1,0,2.5m1.7-5.6A5.7,5.7,0,0,0,44.4,68a7.8,7.8,0,0,0-2.2-.4A7.8,7.8,0,0,0,40,68a5.7,5.7,0,0,0-1.8,1.2A6.2,6.2,0,0,0,37,71.1a6.1,6.1,0,0,0-.4,2.4,5.9,5.9,0,0,0,.4,2.3,5.2,5.2,0,0,0,1.2,1.9A5.7,5.7,0,0,0,40,78.9a5.1,5.1,0,0,0,2.2.5,5.4,5.4,0,0,0,2.2-.5,3.6,3.6,0,0,0,1.8-1.2,5.7,5.7,0,0,0,1.2-1.8,6.7,6.7,0,0,0,.4-2.4,6.1,6.1,0,0,0-.4-2.4,6.2,6.2,0,0,0-1.2-1.9m-16.3,1-.7.4a2.5,2.5,0,0,1-1.2.1l-.9-.3-.7-.7a3.7,3.7,0,0,1-.5-1.1,3.3,3.3,0,0,1,0-1.4,5,5,0,0,1,.4-1.3A2.2,2.2,0,0,1,27,65a2.6,2.6,0,0,1,.9-.5h.9a3.4,3.4,0,0,1,1.2.4l.6.4Zm-.8-8.9a6.5,6.5,0,0,0-2.4.2,5.6,5.6,0,0,0-2,1.1,5.8,5.8,0,0,0-1.5,1.9,6.1,6.1,0,0,0-.7,2.4,6,6,0,0,0,.1,2.7,6.7,6.7,0,0,0,.9,2.1,4.6,4.6,0,0,0,1.7,1.4,4.8,4.8,0,0,0,2,.7,5.8,5.8,0,0,0,2.3-.2h.1c-.2.8-.1,5.1-4.1,3.9-1.6-.4-3.3-2.8-3.8-3.8h-.2L19.4,76v.2c.9,2.1,4.1,4.7,6.3,5s6.4-.8,7.2-7.6c.5-4,1.5-11.3,1.5-11.3l-5.3-1"/><path class="cls-3" d="M85.6,50.5a3.4,3.4,0,0,0-2.6.4v-.3H81a.2.2,0,0,0-.2.2s.3,6.9.3,7.1.1.2.2.2h1.9c.2,0,.1-.2.1-.3V54.5a2.8,2.8,0,0,1,.1-.9.8.8,0,0,1,.2-.5.5.5,0,0,1,.4-.3c.2-.2,1-.1,1.1-.1s.3,0,.3-.2a10.5,10.5,0,0,0,.4-1.7c.1-.2.1-.3-.1-.3M77,55.3a1.4,1.4,0,0,1-.2.6l-.4.3a1.6,1.6,0,0,1-1.2.1l-.4-.3a2.1,2.1,0,0,1-.4-.6,1.5,1.5,0,0,1-.1-.7,2.5,2.5,0,0,1,.3-1.3,1.2,1.2,0,0,1,1-.5h.6l.4.3a1.6,1.6,0,0,1,.5,1.2,1.9,1.9,0,0,1-.1.8m1.2-3.7a3.5,3.5,0,0,0-1.2-.7,4.2,4.2,0,0,0-2.9.2A3.1,3.1,0,0,0,73,52a3.5,3.5,0,0,0-.8,1.3,7.8,7.8,0,0,0-.2,1.6,3.7,3.7,0,0,0,.4,1.5,2.5,2.5,0,0,0,.8,1.2,3.7,3.7,0,0,0,2.7.9,2.3,2.3,0,0,0,1.4-.4l1.1-.8a4.6,4.6,0,0,0,.8-1.3,8.8,8.8,0,0,0,.2-1.6,2.9,2.9,0,0,0-.4-1.6,2.5,2.5,0,0,0-.8-1.2m-8.9-1.1a1.3,1.3,0,0,1,1.2-.1c.2.1.2.1.3-.2s.4-1.3.4-1.4.1-.3-.2-.3a3.7,3.7,0,0,0-2.8.1l-.9.7a4.1,4.1,0,0,0-.5.9,8.8,8.8,0,0,0-.1,1.4h-.8c-.2,0-.2.3-.2.3v1.7s-.1.1.2.1h.8v4.8s0,.3.2.3H69c.3-.1.2-.3.2-.3L69,53.5h1.7c.2,0,.1,0,.1-.2V51.6c0-.1,0-.2-.2-.2H68.9a.9.9,0,0,1,.4-.9"/><path class="cls-3" d="M35.6,80.5c12,8.3,23,.8,25.1-.5.2-.1.4-.1.5.1l1.5,2a.4.4,0,0,1-.1.5,22.9,22.9,0,0,1-14.1,4.5c-5.5-.2-9.9-1.5-13.9-5.1-.2-.1-.2-.4-.1-.7l.5-.8c.2-.3.4-.2.6,0"/></g></g></g></svg>