<svg xmlns="http://www.w3.org/2000/svg" viewBox="0 0 355.6 52.9"><defs><style>.cls-1{fill:#1c4f9e;}.cls-2{fill:#fff;}</style></defs><title>fb-btn</title><g id="Layer_2" data-name="Layer 2"><g id="Layer_1-2" data-name="Layer 1"><g id="Go_to_facebook_button" data-name="Go to facebook button"><rect class="cls-1" x="65" width="290.6" height="52.91" rx="13.1"/><path class="cls-2" d="M90.7,29.7h-.9c-.5,0-.8.1-.8.2h0a1.8,1.8,0,0,1-.1.5v1.4a.8.8,0,0,1,.1.4v1.7a.8.8,0,0,1,.1.4c0,.1,0,.1-.1.2V35a1.8,1.8,0,0,0,.1.6h0v.7a4.3,4.3,0,0,0,.1.5h0c0,.5-.2.8-.5.8H84.2c-.2-.1-.2-.3-.2-.5a3.1,3.1,0,0,1-.1-1.1,9.2,9.2,0,0,1-.1-1.8V31.3h0V31h0V29.8h0v-.7h0V27.2h0v-.4h0a8.9,8.9,0,0,1-.1-1.3V24.2a3.1,3.1,0,0,1,.1-.9v-.8a3.5,3.5,0,0,0-.1-.6v-.8h0v-.7h0v-.5h0V18.4A.6.6,0,0,1,84,18c0-.2.2-.4.4-.6l.9-.2h3c.1,0,.1,0,.1-.1h4.5a.8.8,0,0,1,.4.4,4.9,4.9,0,0,1,.1,1.4h0v1.4h0v1.1l-.4.2H89.1a1,1,0,0,1-.1.4h0v2.5h0c0,.2,0,.4.1.4a.1.1,0,0,0,.1.1h3.4c.1,0,.3.1.3.2v.2h0v.5a1.3,1.3,0,0,1,.1.6v.8h0a5.4,5.4,0,0,1-.1,1.7c0,.1-.1.1-.1.2H90.7Z"/><path class="cls-2" d="M100.1,33.9H98.8c-.3.1-.4.1-.4.2h0L98,36.8h0c-.2.5-.5.7-.8.7h-4c-.1,0-.2,0-.2-.2h0V36.3a18.9,18.9,0,0,0,.5-2.3,15.5,15.5,0,0,0,.4-2.1v-.3c.1,0,.1-.1.1-.2a.8.8,0,0,1,.1-.4v-.4a.3.3,0,0,0,.1-.2,1.3,1.3,0,0,1,.1-.6v-.3a.4.4,0,0,0,.1-.3.8.8,0,0,1,.1-.4c0-.2.1-.3.1-.4a.8.8,0,0,1,.1-.4c0-.1.1-.3.1-.4a1,1,0,0,1,.1-.4,2.8,2.8,0,0,1,.1-.8l.3-1.5a4.5,4.5,0,0,1,.1-.6c.3-1.2.5-2.2.7-2.9a3.9,3.9,0,0,1,.3-1.2v-.6h.1v-.2h0c0-.1,0-.2.1-.2v-.2h0a1.2,1.2,0,0,1,.3-.9v-.2c0-.2.1-.3.3-.4h5.5c.2.1.2.2.2.4v.2a1.2,1.2,0,0,1,.3.9h0v.4h0c0,.1.1.1.1.2h0v.6a6.3,6.3,0,0,0,.3,1.2c.1.7.4,1.7.6,2.9a4.5,4.5,0,0,1,.1.6c.1.3.1.6.2.8a1.7,1.7,0,0,1,.1.7,9.1,9.1,0,0,0,.3,1.2.6.6,0,0,0,.1.4.8.8,0,0,1,.1.4.8.8,0,0,0,.1.4c0,.2.1.3.1.4v.3c0,.1.1.2.1.3a1.3,1.3,0,0,0,.1.6v.2a.6.6,0,0,0,.1.4v.4a.3.3,0,0,0,.1.2v.3a39.1,39.1,0,0,0,.8,4.4v1h0a.5.5,0,0,1-.4.5h-4.2c-.1,0-.1,0-.1-.1a.4.4,0,0,1-.1-.3v-.4h0a.6.6,0,0,1-.1-.4,6.4,6.4,0,0,1-.2-.9c0-.3-.1-.6-.1-.9a1,1,0,0,1-.1-.4h0c0-.1-.1-.1-.3-.2h-1.4Zm0-9.9v.7c-.1.3-.1.5-.2.6v.2c0,.1-.1.2-.1.3a.4.4,0,0,1-.1.3.6.6,0,0,1-.1.4v.3a3.5,3.5,0,0,0-.1.6l-.3,1.1v.4c0,.2.1.3.4.3h1.2c.3,0,.5-.1.5-.3s-.1-.3-.1-.4l-.2-1.1c-.1-.5-.2-.8-.2-.9a1.6,1.6,0,0,0-.1-.4.4.4,0,0,0-.1-.3V24.7Z"/><path class="cls-2" d="M119.7,34.6a.9.9,0,0,0-.1.5c0,.2-.1.4-.1.6a2.1,2.1,0,0,1-1.4,1.6l-.4.2h-.5a.1.1,0,0,0-.1.1H117l-.8.2h-1.6c-.2,0-.3,0-.3.1h-1.1c0,.1-.1.1-.2.1h-3a.6.6,0,0,1-.5-.2l-.4-.3h-.2a4.7,4.7,0,0,1-.6-.9v-.5a.3.3,0,0,1-.1-.2v-.9a.4.4,0,0,1-.1-.3h0a3.2,3.2,0,0,0-.1-.7,5,5,0,0,1-.1-1.5v-.5a1.6,1.6,0,0,1-.1-.4V28.5a.8.8,0,0,1-.1-.3h0V26.2a2.2,2.2,0,0,1,.1-.6h0V24h0V21.5a4.3,4.3,0,0,0,.1-.5v-.6a5.4,5.4,0,0,1,.4-1.5,2.4,2.4,0,0,1,.8-.9l.4-.2.7-.3.5-.2h7.2l.4.2.3.2.3.2.2.2a1.6,1.6,0,0,1,.4.7l.5,1.1a.4.4,0,0,0,.1.3v.2h0a1.3,1.3,0,0,1,.1.6v.7a2.2,2.2,0,0,1,.1.9h0v2.5h0l-.2.2-.2.2h-3.6c-.6,0-1-.1-1.1-.4v-.9a2.5,2.5,0,0,0-.1-1v-.3a2.4,2.4,0,0,0-.3-.7h-.1l-.2-.2h-1.1v.2l-.2.2c-.1.1-.1.3-.1.6v2h0c-.1.1-.1.1-.1.2v3.8h0v.3h0v1.5a3,3,0,0,0,.3,1.1h0a.1.1,0,0,0,.1.1h1.4l.3-.2c0-.1.1-.2.1-.3s.1-.4.1-.6a4.2,4.2,0,0,0,.1-1.4v-.8h4.6c.1,0,.2,0,.2.1s.2.3.2.5h0v1.1a.9.9,0,0,0-.1.5h0V32h0v.4a3.8,3.8,0,0,1-.1,1A4.1,4.1,0,0,0,119.7,34.6Z"/><path class="cls-2" d="M128.5,17.3h2a1.2,1.2,0,0,1,.5.8V21h0a.8.8,0,0,1-.6.9h-2.8c-.5,0-.7.1-.7.3a1.3,1.3,0,0,0-.1.6v.8h0v.5h0c-.1,0-.1.2-.1.6v.3a.2.2,0,0,0,.2.2h2.8c.6,0,.9.1,1,.4s.1.2.2.5v1.9a1.1,1.1,0,0,0-.1.5,1.1,1.1,0,0,1-.5.9h-3c-.3,0-.4.3-.4.8v.2h0a.4.4,0,0,0,.1.3v1.6c0,.1,0,.2.1.2s.1.1.3.1h3.1c.2,0,.3.2.4.6a5.8,5.8,0,0,1,.1,1.5v1c0,.9-.1,1.3-.4,1.3s-.1.1-.3.1h-8.1a.2.2,0,0,1-.2-.2v-.2l-.2-.5V35.4h-.1a.1.1,0,0,1,.1-.1v-.2h0v-2h-.1v-.5c0-.2,0-.3.1-.4V30.1c-.1,0-.1-.3-.1-.8s0-.9.1-.9V27.3a2.3,2.3,0,0,1-.1-.7,1.3,1.3,0,0,1,.1-.6V22.5h0V22h0V19.2h0a1.9,1.9,0,0,1,.3-1.2l.2-.2.4-.3h4.5a.1.1,0,0,1,.1-.1c.2,0,.3,0,.3.1h1Z"/><path class="cls-2" d="M140.5,37.8h-6.7c-.6,0-1-.1-1.1-.3a1.4,1.4,0,0,1-.2-.7c0-.1.1-.2.1-.3V24.6h0V21a1.3,1.3,0,0,0,.1-.6v-.3a3.5,3.5,0,0,1-.1-.6,2.5,2.5,0,0,1,.2-1v-.2l.6-.8h.1c.2-.2.3-.3.5-.3h7.2l.9.2h.9l.4.2.4.3a5.4,5.4,0,0,1,1,1.5c0,.1.1.2.1.4s.1.2.1.4a.4.4,0,0,1,.1.3v.2a2.3,2.3,0,0,1,.1.7h0v1.4a14.5,14.5,0,0,1-.6,1.9c-.1.1-.1.3-.2.4a.3.3,0,0,0-.1.2h-.1v.2l-.3.4-.2.3c-.1.2-.1.3-.2.3h0c0,.1.1.3.4.6l.5.5.3.5.4.5a1.1,1.1,0,0,1,.2.6,1.5,1.5,0,0,1,.1.7,4.3,4.3,0,0,1,.1.5v1.4h0V33a6.5,6.5,0,0,1-.3,1,1.9,1.9,0,0,1-.3.8,13.6,13.6,0,0,1-1.2,1.7h-.3l-.6.4-.6.3-.8.3h-.7Zm-2.8-16c-.1,0-.1,0-.1.2v2.4a.5.5,0,0,0,.2.4,1.4,1.4,0,0,0,1.1-.3h.2l.3-.3.2-.2v-.3h.1a1.7,1.7,0,0,0,.1-.8.7.7,0,0,0-.1-.5.5.5,0,0,0-.3-.4l-.7-.2h-.7C137.9,21.6,137.7,21.6,137.7,21.8Zm2.1,8.1c0-.2-.2-.3-.4-.4l-.6-.2h-.9c-.2,0-.2,0-.2.1v2c0,.9,0,1.3.1,1.4a.1.1,0,0,0,.1.1h1.3c0-.1.1-.2.2-.3s.2-.2.2-.3.1-.1.1-.2a.4.4,0,0,0,.1-.3v-.5h0v-.2A2.2,2.2,0,0,0,139.8,29.9Z"/><path class="cls-2" d="M146.7,22.2v-.8h0v-.2a1.1,1.1,0,0,1,.1-.5c0-.2.1-.4.1-.6s.1-.4.2-.6a1.1,1.1,0,0,0,.1-.5c.1-.1.1-.1.1-.2l.2-.3a2.4,2.4,0,0,1,1.1-.8h.4c.1,0,.1-.1.2-.2h6.2l.9.4h.4l.3.2a1.9,1.9,0,0,1,.8.8l.4.5v.2c.1.2.1.4.2.6a4.6,4.6,0,0,1,.3.9,11.5,11.5,0,0,1,.2,1.4v.4a1.1,1.1,0,0,1,.1.5v3.3h0c-.1.1-.1.3-.1.6v2.1c0,.1.1.2.1.3v1.3a3.1,3.1,0,0,1-.1,1.1v.4a2,2,0,0,1-.1.7v.5h0v.9l-.3,1.2a1.1,1.1,0,0,0-.2.4.9.9,0,0,1-.4.6l-.3.3-.4.2-.4.2h-2c-.3,0-.5,0-.5.1h-2.3c-.1,0-.2,0-.2-.1h-2.7c-.1,0-.2,0-.2-.1H149a.8.8,0,0,1-.6-.2c0-.1-.2-.2-.3-.3s-.3-.1-.3-.2l-.5-.7a1.3,1.3,0,0,1-.3-.7l-.2-.3c-.1-.1-.1-.4-.1-.7v-.9a3.8,3.8,0,0,1-.1-1V30.8c0-.3-.1-.6-.1-.9v-.6h0V26.7c0-.7.1-1.2.1-1.5V24c0-.2.1-.3.1-.4a.4.4,0,0,0-.1-.3v-.2h0a1,1,0,0,1,.1-.4v-.2h0Zm7.4,5c-.1-.1-.1-.2-.1-.4v-.5a1.3,1.3,0,0,1,.1-.6v-.5c-.1-.1-.1-.4-.1-.9v-.8a3.5,3.5,0,0,0-.3-1.3l-.4-.2-.6-.2h-.1a.7.7,0,0,0-.6.4c-.2.2-.4.4-.4.6a.7.7,0,0,0-.1.5v8.1l.2.4c.1.4.4.6.9.7h.1a1.5,1.5,0,0,0,1-.5c.3-.3.4-.9.4-1.9V27.7A.9.9,0,0,0,154.1,27.2Z"/><path class="cls-2" d="M160.8,22.2a.4.4,0,0,0,.1-.3v-.5h0v-.2a4.3,4.3,0,0,0,.1-.5c.1-.2.1-.4.2-.6s.1-.4.1-.6.1-.4.2-.5v-.2l.2-.3a1.7,1.7,0,0,1,1.1-.8h.4v-.2h6.2l.9.4h.4l.4.2a1.9,1.9,0,0,1,.7.8l.4.5v.2l.3.6a5.1,5.1,0,0,0,.2.9,5,5,0,0,1,.3,1.4v1.4a1.5,1.5,0,0,0-.1.6,1.1,1.1,0,0,0,.1.5v.5c0,.6,0,.9-.1.9v.3h0v1.6c0,.3,0,.5-.1.6V29a.4.4,0,0,1,.1.3v1.6a3.1,3.1,0,0,1-.1,1.1v1.1a1.1,1.1,0,0,0-.1.5h0v.9a3.5,3.5,0,0,1-.3,1.2,1.1,1.1,0,0,0-.2.4.7.7,0,0,1-.4.6l-.3.3-.4.2-.4.2h-4.8c-.1,0-.2,0-.2-.1h-2.7c-.1,0-.1,0-.1-.1h-.2l-.6-.2q0-.1-.3-.3l-.3-.2-.5-.7-.3-.7v-.3a1.2,1.2,0,0,1-.2-.7V31.7a2.8,2.8,0,0,1-.1-.9V29.3h0V24.5a.9.9,0,0,1,.1-.5v-.9c-.1,0-.1,0-.1-.1a1,1,0,0,0,.1-.4v-.2h0A.1.1,0,0,1,160.8,22.2Zm7.4,5V24.3c0-.1-.1-.2-.1-.3v-.5a3.5,3.5,0,0,0-.3-1.3l-.4-.2-.6-.2h0a.8.8,0,0,0-.7.4l-.4.6v1.8c-.1.1-.1.3-.1.8s0,.5.1.6v.2a7.7,7.7,0,0,1-.1,1v3.3a1.4,1.4,0,0,0,0,.9c0,.2.1.3.1.4s.4.6,1,.7h.1a1.4,1.4,0,0,0,.9-.5c.3-.3.4-.9.4-1.9V28.2a4.3,4.3,0,0,1,.1-.5Z"/><path class="cls-2" d="M175,20.3V17.5c.1-.1.3-.2.8-.2s.1-.1.2-.1h.7a.2.2,0,0,0,.3,0h2.9a.2.2,0,0,1,.2.2,1,1,0,0,1,.1.4v.3a4.3,4.3,0,0,0-.1.5v4.9c.1,0,.2-.3.6-1v-.3a2.1,2.1,0,0,1,.4-.6.4.4,0,0,1,.1-.3l.2-.3.3-.4.2-.4v-.2c.1-.1.1-.2.2-.4s.1-.2.1-.3l.9-1.1a1.6,1.6,0,0,1,.3-.6l.2-.2c.1-.2.6-.3,1.3-.3h3c.2,0,.4,0,.5.2s.1,0,.2.2v.2a1.7,1.7,0,0,1-.3,1l-.7.9h-.1c-.1,0-.1.1-.1.2s-.2.2-.2.3-.2.2-.2.3-.1.1-.1.2l-.7,1c0,.1-.1.2-.2.4l-.4.7-.4.7-.3.4a.1.1,0,0,1-.1.1c0,.1,0,.2-.1.2l-.3.7a2.5,2.5,0,0,0-.4.7l-.2.3h0a2.5,2.5,0,0,0,.4.8v.2a.8.8,0,0,0,.1.4l.3.6a2.4,2.4,0,0,0,.4,1.1l.3.7.3.7v.2h.1a2.3,2.3,0,0,0,.3.9l.7,1.6c0,.1.1.3.2.7a1.5,1.5,0,0,1,.3.6l.3.5.3.6a1.8,1.8,0,0,1,.4.9h.1c0,.4-.3.5-.8.5h-4.6c-.3,0-.4-.1-.5-.4a.8.8,0,0,0-.1-.3,4.3,4.3,0,0,1-.1-.5l-.2-.2a4.1,4.1,0,0,0-.2-.7h-.1a.1.1,0,0,0-.1-.1v-.2a4.3,4.3,0,0,0-.1-.5l-.3-.6-.2-.3a.8.8,0,0,1-.1-.4c-.1-.1-.1-.2-.2-.5a1.4,1.4,0,0,1-.2-.6l-.4-1-.4-.9v.5h0v.3a2.5,2.5,0,0,1-.1.8v2.5c0,.2-.1.3-.1.5v.7a4.3,4.3,0,0,1-.1.5c0,.2.1.3.1.4h0a1.8,1.8,0,0,1-.1.6c0,.1-.2.2-.5.2h-3.4c-.4,0-.7,0-.8-.2s-.3-.5-.3-1.1v-.9h0V33.6h0v-.2h0v-.5h0V26.8h0v-.2h0V20.6h0Z"/><path class="cls-2" d="M210.5,34.6v.5c-.1.2-.1.4-.2.6a1.6,1.6,0,0,1-.5,1,1.6,1.6,0,0,1-.8.6l-.5.2h-.4c-.1,0-.1,0-.1.1h-.1a1.4,1.4,0,0,1-.9.2h-.3a.1.1,0,0,1-.1-.1h-1.2c-.1,0-.2,0-.2.1h-1.4c-.1,0-.2,0-.2-.1h-2.8a.6.6,0,0,1-.4-.2l-.5-.3h-.2a4.1,4.1,0,0,1-.5-.9V35a1.1,1.1,0,0,1-.1-.5v-.3h-.1v-.7a4,4,0,0,1-.2-1.5V30c0-.4,0-.6-.1-.6V28.2h0V25.6h0V24h0V22.1a1.3,1.3,0,0,1,.1-.6,1.1,1.1,0,0,1,.1-.5v-.6a5.3,5.3,0,0,1,.5-1.5,2.4,2.4,0,0,1,.8-.9l.3-.2.7-.3.5-.2h7.3l.3.2.4.2.3.2v.2a1.8,1.8,0,0,1,.5.7l.5,1.1c0,.2,0,.3.1.3v.2h0v.6a1.5,1.5,0,0,1,.1.7v.9h0v2.5h-.1c0,.1-.1.1-.1.2l-.3.2H207c-.7,0-1-.1-1.1-.4v-.9a2.5,2.5,0,0,0-.1-1,.4.4,0,0,0-.1-.3,1.2,1.2,0,0,0-.2-.7h-.2l-.2-.2h-1l-.2.2v.2c-.1.1-.1.3-.2.6v.4a.4.4,0,0,1-.1.3V25h0v.4c0,.1-.1.2-.1.3v3.3h0v.3h0v1.2c0,.1.1.2.1.3a2,2,0,0,0,.2,1.1h1.6a.2.2,0,0,0,.2-.2l.2-.3a1.3,1.3,0,0,1,.1-.6,13.8,13.8,0,0,0,.1-1.4v-.8a.1.1,0,0,1,.1-.1h.2a.1.1,0,0,0,.1.1h4.4a.8.8,0,0,1,.2.5h0v1.1a.9.9,0,0,0-.1.5h0V32h0v.4c0,.3-.1.6-.1,1A5.8,5.8,0,0,0,210.5,34.6Z"/><path class="cls-2" d="M212.6,22.2v-.8h0v-.2a1.1,1.1,0,0,1,.1-.5c0-.2.1-.4.1-.6s.1-.4.2-.6a1.1,1.1,0,0,0,.1-.5c.1-.1.1-.1.1-.2l.2-.3a2,2,0,0,1,1.1-.8h.4l.2-.2h6.2l.9.4h.4l.3.2a1.9,1.9,0,0,1,.8.8l.4.5v.2c.1.2.1.4.2.6a4.6,4.6,0,0,1,.3.9,11.5,11.5,0,0,1,.2,1.4v.4a1.1,1.1,0,0,1,.1.5v3.3h0c-.1.1-.1.3-.1.6v2.1c0,.1.1.2.1.3v1.3A3.1,3.1,0,0,1,225,32v.4a2,2,0,0,1-.1.7v.5h0v.9a10.4,10.4,0,0,0-.3,1.2,1.1,1.1,0,0,0-.2.4.9.9,0,0,1-.4.6l-.3.3-.4.2-.4.2h-2c-.3,0-.5,0-.5.1h-2.3c-.1,0-.2,0-.2-.1h-2.7c-.1,0-.2,0-.2-.1h-.1a.8.8,0,0,1-.6-.2c0-.1-.2-.2-.3-.3s-.3-.1-.3-.2l-.5-.7a1.3,1.3,0,0,1-.3-.7l-.2-.3c-.1-.1-.1-.4-.1-.7v-.9a3.8,3.8,0,0,1-.1-1V30.8c0-.3-.1-.6-.1-.9v-.6h0V26.7c0-.7.1-1.2.1-1.5V24c0-.2.1-.3.1-.4a.4.4,0,0,0-.1-.3v-.2h0a1,1,0,0,1,.1-.4v-.2h0Zm7.4,5c-.1-.1-.1-.2-.1-.4v-.5a1.3,1.3,0,0,1,.1-.6v-.5c-.1-.1-.1-.4-.1-.9v-.8a3.5,3.5,0,0,0-.3-1.3l-.4-.2-.6-.2h-.1a.7.7,0,0,0-.6.4c-.2.2-.4.4-.4.6a.7.7,0,0,0-.1.5v8.1a.8.8,0,0,1,.1.4,1.3,1.3,0,0,0,1,.7h.1a1.5,1.5,0,0,0,1-.5c.3-.3.4-.9.4-1.9V27.7A.9.9,0,0,0,220,27.2Z"/><path class="cls-2" d="M234.5,23.8a4.3,4.3,0,0,0,.4.7,1.1,1.1,0,0,0,.2.4V21.4a2.2,2.2,0,0,1,.1-.8V20c0-.1-.1-.3,0-.5v-.6h0v-.3c-.1-.1,0-.2,0-.4a1.6,1.6,0,0,1,.4-.7l.8-.2h2.7a1,1,0,0,1,1,1v2.4h0v6.3h0v2.2h0v6.6a1.3,1.3,0,0,1,.1.6v.8a1,1,0,0,1-.8.4H236l-.7-.2h-.1v-.2h-.2V37l-.2-.7-.2-.3a.3.3,0,0,0-.1-.2v-.3a.3.3,0,0,1-.1-.2.4.4,0,0,0-.1-.3l-.5-1.5h0l-.2-.3v-.3l-.3-1a1.6,1.6,0,0,0-.3-.6,4.3,4.3,0,0,0-.1-.5.3.3,0,0,1-.1-.2l-.2-.4-.2-.4a.3.3,0,0,0-.1-.2c-.1,0-.1.4-.1,1.2v1.6h0v3.6h0v.3h0v1.2c-.1.2-.4.2-.9.2h-3.4c-.4,0-.6-.1-.7-.4a2.5,2.5,0,0,1-.1-1.1V33.2a.7.7,0,0,1-.1-.5v-.3h0V23.6a2,2,0,0,0,0-1.1V21.1h0V18.8a3.8,3.8,0,0,1,.1-1.3h0a.1.1,0,0,1,.1-.1h5v.2h.1c0,.1.1.1.1.2s.2.2.3.4.1.5.2.7l.3.7v.3h.1a.3.3,0,0,0,.1.2c.1.2.1.4.2.6a2.5,2.5,0,0,1,.2.7l.2.3V22c.1,0,.1.1.1.2a.4.4,0,0,1,.1.3v.2l.2.7Z"/><path class="cls-2" d="M258.1,37.8h-6.6c-.7,0-1-.1-1.2-.3a1.5,1.5,0,0,1-.1-.7V33.9a1.3,1.3,0,0,1-.1-.6V28a4.5,4.5,0,0,1,.1-1.3V24.6h0v-5a2.8,2.8,0,0,1,.1-1c.1,0,.1-.1.1-.2a1.5,1.5,0,0,1,.5-.8h.1l.5-.3h7.2l.9.2h.9l.4.2.5.3a3.9,3.9,0,0,1,.9,1.5c0,.1.1.2.1.4l.2.4a.4.4,0,0,0,.1.3v.2a2.3,2.3,0,0,1,.1.7h0v1.4a4.7,4.7,0,0,1-.6,1.9.8.8,0,0,1-.2.4.3.3,0,0,1-.1.2h0v.2l-.4.4c0,.1-.1.1-.1.3s-.2.3-.3.3h0c0,.1.2.3.4.6l.5.5.4.5.3.5a3.3,3.3,0,0,1,.3.6c0,.2.1.4.1.7v.5c0,.2.1.4.1.7a2.4,2.4,0,0,1-.1.7h0V33a3,3,0,0,1-.2,1,2,2,0,0,1-.4.8,5.3,5.3,0,0,1-1.2,1.7h-.3l-.6.4-.6.3-.8.3h-.7Zm-2.8-16c-.1,0-.1,0-.1.2v1.4c0,.3,0,.6.1.6v.4c0,.2,0,.3.1.4a1.4,1.4,0,0,0,1.1-.3h.3l.2-.3.2-.2v-.3h.1a1.7,1.7,0,0,0,.1-.8v-.5a.5.5,0,0,0-.3-.4l-.7-.2h-.8C255.5,21.6,255.4,21.6,255.3,21.8Zm2.1,8.1c0-.2-.1-.3-.3-.4l-.6-.2h-1c-.1,0-.2,0-.2.1v2c0,.9.1,1.3.2,1.4h1.4c0-.1,0-.2.2-.3l.2-.3a.3.3,0,0,1,.1-.2.4.4,0,0,1,.1-.3v-.5h0v-.2A2.2,2.2,0,0,0,257.4,29.9Z"/><path class="cls-2" d="M264.3,22.2a.4.4,0,0,0,.1-.3v-.5h0v-.2a4.3,4.3,0,0,0,.1-.5,1.4,1.4,0,0,1,.2-.6c0-.2.1-.4.1-.6s.1-.4.2-.5v-.2l.2-.3a1.7,1.7,0,0,1,1-.8h.5a.3.3,0,0,1,.1-.2h6.2l.9.4h.4l.4.2a1.9,1.9,0,0,1,.7.8l.4.5v.2a1.4,1.4,0,0,1,.2.6l.3.9a5,5,0,0,1,.3,1.4v1.4c-.1,0-.1.2-.1.6a1.1,1.1,0,0,0,.1.5v.5a3.1,3.1,0,0,1-.1.9v.3h0v1.6a3.5,3.5,0,0,1-.1.6V29a.4.4,0,0,1,.1.3v1.6a3.1,3.1,0,0,1-.1,1.1v1.1a1.1,1.1,0,0,0-.1.5h0v.9a3.5,3.5,0,0,1-.3,1.2,1.1,1.1,0,0,0-.2.4.7.7,0,0,1-.4.6l-.3.3-.4.2-.4.2h-4.8c-.1,0-.2,0-.2-.1h-2.7c-.1,0-.1,0-.1-.1h-.2a.8.8,0,0,1-.6-.2q0-.1-.3-.3l-.3-.2-.5-.7-.3-.7v-.3a1.2,1.2,0,0,1-.2-.7V32.1a1,1,0,0,0-.1-.4V29.3h0V24.5a.9.9,0,0,1,.1-.5v-.7c0-.1,0-.1-.1-.2h0a1,1,0,0,0,.1-.4v-.2h0C264.3,22.3,264.3,22.3,264.3,22.2Zm6-9c.1.1.3.2.4.4l.5.9v.3l.2.2v.2l.2.4c.1.1.1.2.1.4a.4.4,0,0,1-.1.3h-1a.1.1,0,0,1-.1.1h-1.1a.7.7,0,0,1-.6-.4l-.3-.4-.3-.4-.2-.3-.3-.3c0-.2-.3-.5-.6-.7a.4.4,0,0,1-.1-.3h3.1Zm1.4,14V24.3c0-.1-.1-.2-.1-.3v-.5a3.5,3.5,0,0,0-.3-1.3l-.4-.2-.6-.2h0a.8.8,0,0,0-.7.4,2.1,2.1,0,0,0-.4.6v1.8c-.1.1-.1.3-.1.8s0,.5.1.6v.2a7.7,7.7,0,0,1-.1,1v3.3a2.8,2.8,0,0,0,.1.9c0,.2,0,.3.1.4s.4.6,1,.7h.1a1.4,1.4,0,0,0,.9-.5c.3-.3.4-.9.4-1.9V28.2a4.3,4.3,0,0,1,.1-.5Z"/><path class="cls-2" d="M298.8,34.6a.9.9,0,0,1-.1.5,1.3,1.3,0,0,1-.1.6,2.3,2.3,0,0,1-.5,1,2.1,2.1,0,0,1-.8.6l-.5.2h-.7c-.1.1-.3.2-.8.2h-3c0,.1-.1.1-.2.1s-.2,0-.2-.1h-2.8l-.5-.2-.4-.3H288a4.1,4.1,0,0,1-.5-.9l-.2-.3v-.2a.3.3,0,0,1-.1-.2v-.9c0-.1-.1-.2-.1-.3h0a3.2,3.2,0,0,0-.1-.7c0-.2-.1-.7-.1-1.5v-.9c-.1-.1-.1-.4-.1-.9V28.2h-.1v-.9a3.1,3.1,0,0,1,.1-1v-.6h0V24h0V21.5a.7.7,0,0,0,.1-.5v-.6a3.3,3.3,0,0,1,.5-1.5,2.2,2.2,0,0,1,.7-.9l.4-.2.7-.3.5-.2h7.2l.4.2.3.2.3.2.2.2a1.6,1.6,0,0,1,.4.7,2.5,2.5,0,0,1,.5,1.1v.5h.1v.6a2,2,0,0,0,.1.7v.9h0v1.8c0,.4,0,.6.1.7h-.1c0,.1-.1.1-.2.2l-.2.2h-3.5c-.7,0-1.1-.1-1.1-.4s-.1-.2-.1-.4V23.1a1.2,1.2,0,0,0-.2-.7h-.2l-.2-.2h-1l-.2.2v.2a.8.8,0,0,0-.2.6.6.6,0,0,1-.1.4V25h0v4h0v.3h0v1.5a3,3,0,0,0,.3,1.1h1.5c.2,0,.2-.1.3-.2s.1-.2.1-.3.1-.4.1-.6a4.2,4.2,0,0,0,.1-1.4v-.6a.3.3,0,0,1,.1-.2c0-.1,0-.1.1-.1H299a.8.8,0,0,1,.2.5h0c-.1,0-.1.1-.1.3v.2c0,.1.1.1.1.2s-.1.3-.1.4-.1.3-.1.5h0V32h0v.4a3.8,3.8,0,0,1-.1,1A4.1,4.1,0,0,0,298.8,34.6Z"/><path class="cls-2" d="M313.9,13.9h1l.3.2h.2l.3.4a1.1,1.1,0,0,1,.2.6,3.1,3.1,0,0,1,.1,1,1.6,1.6,0,0,1-.4,1h-.4l-.5.5a4.3,4.3,0,0,0-.4.7v4.8c0,.1,0,.2-.1.2V24h.1v.4h0v1.1h0v6h0v.2h0a3.5,3.5,0,0,0-.1.7c-.1.4-.1.9-.2,1.4l-.3.8-.4.5a.1.1,0,0,0-.1.1.3.3,0,0,1-.1.2.3.3,0,0,0-.1.2h-.1l-.3.3a1.6,1.6,0,0,1-.8.5H311l-.9.4h-5.5l-.7-.3h-.3c-.1,0-.2,0-.2-.1a2.8,2.8,0,0,1-.8-.6l-.6-.7c-.2-.1-.4-.5-.6-1.1a.3.3,0,0,0-.1-.2v-.3a.8.8,0,0,1-.1-.4,4.3,4.3,0,0,1-.1-.5h0v-.4h0v-.7c0-.2-.1-.4-.1-.7V31a.8.8,0,0,1-.1-.4v-3h0v-1a.4.4,0,0,1-.1-.3v-.5c0-.1.1-.2.1-.3V22.7a1.9,1.9,0,0,1,.1-.8V20.6c0-.1,0-.1-.1-.2h0v-.9h0v-.2c0-.1.1-.1.1-.2h-.1v-.2c.1-.1.1-.3.2-.5l.5-.2h4.2a.3.3,0,0,1,.1.2h.1v.8h0V21a5.5,5.5,0,0,1,.1.9v5.3a.7.7,0,0,1-.1.5v.9h0v.9c0,1.9.2,3,.5,3.3s.2.2.4.3h1.5c.2-.1.3-.1.3-.2h0l.2-.5a3.1,3.1,0,0,1,.2-.8v-.4h0V24.8a1.2,1.2,0,0,0,.1-.5V21.9a3.5,3.5,0,0,0-.1-.6V21c0-.1.1-.2.1-.3v-3c0-.1.1-.1.1-.2H312l.4-.4v-.2h-.6a.7.7,0,0,1-.6-.2c-.3-.1-.5-.5-.6-1v-.6a1.6,1.6,0,0,1,.3-.6l.3-.2h2.6Z"/><path class="cls-2" d="M329.2,14.4l.2.2.3.4a2.5,2.5,0,0,0,.2.7v1a1.1,1.1,0,0,1-.5.9h-.1c0,.1-.1.1-.2.2l-.5.4a1.6,1.6,0,0,0-.4.7,1.6,1.6,0,0,1-.3.6,4.3,4.3,0,0,1,.1.5,2,2,0,0,1,.2.9,8.7,8.7,0,0,1,.3,1.3h0v4.1h-.1v1.6c0,.2-.1.5-.1.6h0v2.6c0,.1-.1.3-.1.4v.7a.8.8,0,0,1-.1.4v.6h0v.9c-.1.2-.1.4-.2.5a2.5,2.5,0,0,1-.2.7,1,1,0,0,1-.1.4l-.5.6-.7.5-.5.2h-.2a.1.1,0,0,0-.1.1h-5.1c0-.1-.1-.1-.3-.1h-2.3c-.3,0-.4,0-.5-.2l-.3-.2-.3-.3a1.8,1.8,0,0,1-.5-.7l-.3-.7a.8.8,0,0,1-.1-.3,1.4,1.4,0,0,1-.2-.6V26.6c0-.6.1-1.1.1-1.4V23.3a.1.1,0,0,0-.1-.1h0V23a.1.1,0,0,1,.1-.1v-.5h0c-.1,0-.1,0-.1-.1v-.3a.4.4,0,0,0,.1-.3v-.2h.1a1.7,1.7,0,0,1,.1-.7.6.6,0,0,1,.1-.4.6.6,0,0,1,.1-.4l.2-.4c0-.1,0-.2.1-.2a.4.4,0,0,1,.1-.3v-.2a3.5,3.5,0,0,1,1.1-.9h7c.1,0,.2,0,.2.1l.5.2h.1c.2-.2.4-.3.4-.4s.1-.2.2-.2a.1.1,0,0,0-.1-.1h-.5a.6.6,0,0,1-.7-.2,1.2,1.2,0,0,1-.5-1.1V15a.9.9,0,0,1,.3-.7,1.1,1.1,0,0,1,.8-.3h2.4l.6.2A.5.5,0,0,1,329.2,14.4Zm-5.8-5.5c.2,0,.3.2.4.4l.5.9.3.4.2.3c0,.2.1.3.1.4a.5.5,0,0,1,.2.4c0,.2-.2.3-.4.3h-1.9c-.3,0-.5-.2-.7-.5l-.3-.4-.3-.3-.2-.3-.2-.3-.3-.4-.3-.4-.2-.2h3.1Zm-.2,18.4V26.1c0-.1.1-.2.1-.3v-.5s-.1-.1,0-.3V23a3.6,3.6,0,0,0-.3-.7.1.1,0,0,1-.1-.1h-.3l-.6-.2h-.1a1.1,1.1,0,0,0-.6.3,1.5,1.5,0,0,0-.3.6c-.1.1-.1.1-.1.2v1.6a2.2,2.2,0,0,0-.1.9v1.4c0,.2,0,.3-.1.3v.5c0,.2.1.3.1.4l-.2,2.4a3.4,3.4,0,0,1,.1.9.7.7,0,0,0,.1.5c0,.3.4.5.9.6h.1a1.4,1.4,0,0,0,.9-.5q.6-.3.6-1.8V27.3Z"/><path class="cls-2" d="M331.3,24.3V23c0-.1.1-.3.1-.4v-.7h0V18.6a.3.3,0,0,0,.1-.2h0a1.4,1.4,0,0,1,.2-.7l.6-.2h2.7c0,.1.2.1.5.1h.9c.2,0,.3.1.3.2v7.8a2.8,2.8,0,0,0-.1.9v2.1c0,.1.1.1.1.2h-.1v1.8h0a.4.4,0,0,1,.1.3v.7c0,.2,0,.2-.1.3V32h0v.3c.1,0,.1.1.1.2s0,.2-.1.2V37c-.1.4-.5.7-1.4.8h-1.6a2.9,2.9,0,0,0-1.2-.2h-.5c-.3-.1-.4-.2-.4-.4h0a.3.3,0,0,1-.1-.2v-.4a1.7,1.7,0,0,0-.1-.7V33.3h0v-.4h0v-.2a1.9,1.9,0,0,1,.1-.8V31h0V24.3Z"/><rect class="cls-1" width="52.9" height="52.91" rx="13.1"/><path class="cls-2" d="M29.7,30.1H28.4q-1.2,0-1.2.3v.2h0a2.6,2.6,0,0,1-.1.7v2.2a1.8,1.8,0,0,1,.1.6,3.5,3.5,0,0,0,.1.6v2.8a.4.4,0,0,0-.1.3,5.1,5.1,0,0,0,.2.9v.4a.3.3,0,0,0-.1.2c0,.2,0,.2.1.3v.5c0,.3.1.5.1.7h0c0,.7-.2,1.2-.7,1.3H20.4c-.2,0-.3-.1-.5-.3a.8.8,0,0,1-.3-.7c-.1-.4-.1-.9-.2-1.6V32.3h0V31.1c0-.5,0-.8-.1-.8h0V28.1a4.9,4.9,0,0,1-.1-1.2v-.6h0V26a.4.4,0,0,0-.1-.3h0V15.9h0c0-.4.1-.6.1-.8h0v-.3a4.3,4.3,0,0,1-.1-.5v-.8a6.4,6.4,0,0,1,.2-.7c0-.3.3-.6.7-.8l1.2-.4H33a1,1,0,0,1,.6.5,9.1,9.1,0,0,1,.2,2.1h0v2.1h0c-.1,0-.1.1-.1.4v.5c0,.2.1.3.1.4a.4.4,0,0,1-.1.3c-.1.2-.3.2-.6.2H31.7c0-.1-.1-.1-.3-.1H27.3a3.5,3.5,0,0,0-.1.7h0v.8c-.1.1-.1.4-.1.7v.8c0,.3.1.5.1.7v.8h0v.6h3.3c.2,0,.3,0,.3-.1h1.7a.5.5,0,0,1,.5.3.3.3,0,0,1,.1.2v1.9a3.7,3.7,0,0,1,.1,1.1h0a8.8,8.8,0,0,1-.2,2.5l-.2.3-.3.2H29.7Z"/></g></g></g></svg>