<svg xmlns="http://www.w3.org/2000/svg" xmlns:xlink="http://www.w3.org/1999/xlink" viewBox="0 0 653.8 134.1"><defs><style>.cls-1{fill:none;}.cls-2{fill:#fcfaf6;}.cls-3{fill:#fff;}.cls-4{clip-path:url(#clip-path);}.cls-5{fill:#1c4f9e;}.cls-6{clip-path:url(#clip-path-2);}.cls-7{clip-path:url(#clip-path-3);}</style><clipPath id="clip-path"><polygon class="cls-1" points="136 38 149.5 119.2 201 48.3 136 38"/></clipPath><clipPath id="clip-path-2"><polygon class="cls-1" points="290.7 53.2 318.6 130.6 356.4 51.7 290.7 53.2"/></clipPath><clipPath id="clip-path-3"><polygon class="cls-1" points="455.3 46.8 492.6 120.1 520.4 37.1 455.3 46.8"/></clipPath></defs><title>flag</title><g id="Layer_2" data-name="Layer 2"><g id="footer"><g id="Flag"><circle class="cls-2" cx="10.6" cy="12.1" r="10.6" transform="translate(-0.1 0) rotate(-0.2)"/><circle class="cls-2" cx="643.2" cy="10.6" r="10.6" transform="translate(0 2.7) rotate(-0.2)"/><polygon class="cls-3" points="212.4 48.8 234.5 128.1 278.1 52.1 212.4 48.8"/><polygon class="cls-3" points="373.6 52.4 405.3 128.4 439.2 47.6 373.6 52.4"/><polygon class="cls-3" points="538.9 33.4 576.2 106.7 604.8 21.1 538.9 33.4"/><polygon class="cls-3" points="119.4 34.5 82.1 107.8 53.4 22.2 119.4 34.5"/><path class="cls-2" d="M10.3,12.2c10.3,3.3,20.8,6,31.3,8.6,28.7,7.1,57.8,12.8,87.1,17.4A1230.8,1230.8,0,0,0,260.2,51.8a1273.5,1273.5,0,0,0,166.9-2.5,1216.9,1216.9,0,0,0,191.5-31c8.3-2.1,16.6-4.2,24.9-6.5a1.2,1.2,0,0,0-.6-2.4A1195.1,1195.1,0,0,1,448,44.9a1244.5,1244.5,0,0,1-169.4,5.2,1234,1234,0,0,1-137-12.4c-30.8-4.6-61.5-10.3-91.8-17.5-8.9-2.1-17.8-4.4-26.6-6.8-3.9-1.1-7.8-2.8-11.8-3.5H11c-1.6-.5-2.2,1.9-.7,2.4Z"/><g class="cls-4"><polygon class="cls-2" points="136 38 149.5 119.2 201 48.3 136 38"/><path class="cls-5" d="M146.4,33.8,132,50.5c-3,3.4,2,8.4,4.9,4.9l14.4-16.7c3-3.4-2-8.4-4.9-4.9Z"/><path class="cls-5" d="M160.1,33.8,133.3,64.2c-2.9,3.4,2,8.4,5,5l26.8-30.4c3-3.4-2-8.4-5-5Z"/><path class="cls-5" d="M172.9,37.1,137.5,80.5c-2.8,3.5,2.1,8.4,5,4.9l35.3-43.3c2.8-3.5-2.1-8.5-4.9-5Z"/><path class="cls-5" d="M186.9,39.1l-47,59.3c-2.8,3.5,2.1,8.5,4.9,5l47-59.4c2.8-3.5-2.1-8.4-4.9-4.9Z"/><path class="cls-5" d="M198.5,41.7q-27.6,37.5-55,75.1c-2.7,3.7,3.4,7.2,6,3.6Q177,82.6,204.6,45.2c2.7-3.6-3.4-7.1-6.1-3.5Z"/></g><g class="cls-6"><polygon class="cls-2" points="290.7 53.2 318.6 130.6 356.4 51.7 290.7 53.2"/><path class="cls-5" d="M300,47.4l-11.2,19c-2.3,3.9,3.8,7.5,6,3.6L306,50.9c2.3-3.9-3.7-7.4-6-3.5Z"/><path class="cls-5" d="M313.5,45,292.6,79.7c-2.3,3.9,3.8,7.4,6.1,3.5l20.9-34.7c2.3-3.9-3.7-7.4-6.1-3.5Z"/><path class="cls-5" d="M326.6,45.9l-26.9,49c-2.2,4,3.9,7.5,6,3.6l27-49c2.2-4-3.9-7.5-6.1-3.6Z"/><path class="cls-5" d="M340.8,45.3l-35.6,66.8c-2.1,4,3.9,7.6,6,3.6l35.6-66.8c2.1-4-3.9-7.5-6-3.6Z"/><path class="cls-5" d="M353.1,45q-20.4,41.9-40.6,83.8c-2,4.1,4,7.6,6,3.5q20.1-41.9,40.7-83.8c2-4-4.1-7.5-6.1-3.5Z"/></g><g class="cls-7"><polygon class="cls-2" points="455.3 46.8 492.6 120.1 520.4 37.1 455.3 46.8"/><path class="cls-5" d="M464,39.4l-8.7,20.3c-1.8,4.1,4.3,7.7,6,3.6l8.8-20.4c1.7-4-4.3-7.6-6.1-3.5Z"/><path class="cls-5" d="M476.2,35.9,461,73.5c-1.7,4.2,5.1,6,6.8,1.9L483,37.8c1.6-4.2-5.1-6-6.8-1.9Z"/><path class="cls-5" d="M490,35.5l-20.7,52c-1.7,4.2,5.1,6,6.7,1.9l20.7-52c1.7-4.2-5.1-6-6.7-1.9Z"/><path class="cls-5" d="M503.9,33.2l-27,70.7c-1.7,4.2,5.1,6,6.7,1.8L510.7,35c1.6-4.2-5.2-6-6.8-1.8Z"/><path class="cls-5" d="M516.1,31.3q-15.2,44.1-30,88.2c-1.4,4.3,5.4,6.1,6.8,1.9q14.9-44.2,30-88.2c1.4-4.3-5.3-6.1-6.8-1.9Z"/></g></g></g></g></svg>