<svg xmlns="http://www.w3.org/2000/svg" viewBox="0 0 355.6 52.9"><defs><style>.cls-1{fill:#fff;}.cls-2{fill:#ed2024;}</style></defs><title>home-btn</title><g id="Layer_2" data-name="Layer 2"><g id="Layer_1-2" data-name="Layer 1"><g id="Back_to_home_button" data-name="Back to home button"><rect class="cls-1" x="65" width="290.6" height="52.91" rx="13.1"/><path class="cls-2" d="M160.5,19.7v.7a1.5,1.5,0,0,1,.1.6v.5c0,.5,0,.8-.1.9s-.4.5-.9.5h-1.3c-.1,0-.1,0-.1-.1h-.5c-.2,0-.2,0-.2.1v.2c0,.2.1.3.1.4a8.6,8.6,0,0,0-.1,1.5v2.3h0v1.4a1.5,1.5,0,0,0-.1.6v1.3c0,.4.1.7.1,1.1v2.8c0,.3.1.6.1.9v2.2c0,.3-.1.5-.2.5l-.3.2h-1.6c0-.1-.1-.1-.2-.1h-1.4a.1.1,0,0,1-.1.1h-.9q-.3-.1-.3-.3a.3.3,0,0,0-.1-.2V32.3a7.1,7.1,0,0,1,.1-1.5V29.6a2.5,2.5,0,0,0-.1-.8V24.3a.4.4,0,0,1,.1-.3v-.6h0a.4.4,0,0,0-.1-.3h-1.8c-.5,0-.8-.2-.9-.5s-.1-.4-.1-.9V19.6c0-.3,0-.5.1-.6v-.4l.2-.3h8.5c.1-.1.2-.1.2,0h1.1l.5.2a.7.7,0,0,1,.2.6Z"/><path class="cls-2" d="M174.3,34.3c0,.3.1.5.1.7s.1.4.2.6v.3a1.9,1.9,0,0,1,.2.7h0a2.7,2.7,0,0,1,.2,1.1h0a.4.4,0,0,0-.1.3l-.4.3h-3.7a1.4,1.4,0,0,1-1.1-.6c-.1-.1-.1-.2-.1-.4h0a.8.8,0,0,1-.1-.4,2.6,2.6,0,0,1-.1-.7V36a.8.8,0,0,1-.1-.4l-.2-.9v-.3a1.5,1.5,0,0,0-.2-.8,5.4,5.4,0,0,0-.1-.8,1.2,1.2,0,0,0-.2-.7,3.9,3.9,0,0,1-.2-.6l-.5-.2h-.3c-.1,0-.1.1-.1.3h0a.8.8,0,0,1-.1.3v4.4a8.1,8.1,0,0,1-.1,1.7.5.5,0,0,1-.5.3h-4.2a.1.1,0,0,0-.1-.1h-.1a.1.1,0,0,1-.1.1h-.1a1.2,1.2,0,0,1-.2-.7v-.3a.4.4,0,0,0-.1-.3v-.8a5.3,5.3,0,0,1,.1-1.3V30.9c0-.4.1-.7.1-1.1V29h0c-.1-.1-.1-.2-.1-.4V28c0-.1.1-.3.1-.4v-.8a1.1,1.1,0,0,0,0-.8v-.7c-.1-.1-.1-.3-.1-.6V24h0V20.9h0V19a1.4,1.4,0,0,1,.2-.6c0-.2.2-.3.4-.4l.9-.2h8.4l.9.3.8.6a3,3,0,0,1,1.1,1.9v1.2a.3.3,0,0,1,.1.2v.3a.8.8,0,0,1-.1.4v4.1c-.1.1-.1.1,0,.2h0v.2c0,.1-.1.2-.1.3s-.1.2-.1.3a.8.8,0,0,1-.1.4c-.2.2-.2.3-.2.4a1.3,1.3,0,0,1-.6.7H173l.2.3.2.3c0,.1.1.2.1.4v.3h.1c0,.1.1.2.1.4a1,1,0,0,0,.1.4,1.6,1.6,0,0,0,.2.9v.4a6.4,6.4,0,0,0,.2.7C174.2,34.1,174.2,34.3,174.3,34.3Zm-6-11.7h-.6c-.1,0-.1.3-.2.8v2.1c0,.6,0,.9.1,1a.1.1,0,0,0,.1.1h.6a.9.9,0,0,0,1-.8,13.9,13.9,0,0,0,.1-1.7v-.4a4.3,4.3,0,0,0-.1-.5V23c-.1-.1-.2-.2-.2-.3h-.8Z"/><path class="cls-2" d="M182.9,34.7h-1.3c-.2,0-.3.1-.3.2h0l-.5,2.7h0c-.2.5-.4.7-.8.7h-3.6a.3.3,0,0,0-.4,0,.2.2,0,0,1-.2-.2h0v-.6c0-.1.1-.2.1-.3v-.3c.2-.8.3-1.6.5-2.3l.3-2.1a.4.4,0,0,1,.1-.3v-.2c0-.1.1-.2.1-.4a.8.8,0,0,0,.1-.4v-.3a4.3,4.3,0,0,0,.1-.5.4.4,0,0,1,.1-.3V30c0-.1.1-.2.1-.4a.8.8,0,0,0,.1-.4.8.8,0,0,1,.1-.4.8.8,0,0,0,.1-.4,1,1,0,0,0,.1-.4,3.1,3.1,0,0,1,.2-.8l.2-1.5c0,.1.1-.2.2-.6a28.4,28.4,0,0,1,.6-2.9,6.6,6.6,0,0,0,.3-1.3h0c.1,0,.1-.1.1-.2V20h0c0-.1.1-.2.1-.3h.1a1.2,1.2,0,0,1,.3-.9.4.4,0,0,0,.1-.3c0-.1,0-.2.2-.3h.3c.3,0,.4,0,.4-.1h4.8q.3.2.3.3v.3a1.2,1.2,0,0,1,.3.9h.1a.4.4,0,0,1,.1.3h0v.8h0a4.9,4.9,0,0,1,.3,1.3,28.4,28.4,0,0,1,.6,2.9c.1.4.2.7.2.6s.1.5.1.8.1.5.2.7.2,1.1.2,1.2.1.2.1.4a.8.8,0,0,1,.1.4c0,.1.1.2.1.4a.8.8,0,0,1,.1.4v.3a.4.4,0,0,1,.1.3,4.3,4.3,0,0,0,.1.5v.3c0,.1.1.2.1.4s.1.3.1.4v.2a.4.4,0,0,1,.1.3c.3,1.6.5,3.1.8,4.4s.1.2.1.3v.7h0a.5.5,0,0,1-.5.5c-.2,0-.4,0-.4.1h-3.9v-.3a.4.4,0,0,0-.1-.3h0a1.6,1.6,0,0,0-.1-.4c0-.3-.1-.6-.1-.9s-.1-.6-.2-.9v-.5h0c0-.1-.2-.2-.4-.2h-1.4Zm0-9.9v.7a3.5,3.5,0,0,1-.1.6v.5c-.1,0-.1.2-.1.3a1.6,1.6,0,0,0-.1.4.4.4,0,0,0-.1.3,1.8,1.8,0,0,1-.1.6l-.3,1.1v.4c0,.2.2.3.5.3h1.2c.3,0,.4-.1.4-.3v-.4l-.3-1.1a4.4,4.4,0,0,1-.1-.9.6.6,0,0,1-.1-.4.5.5,0,0,1-.1-.3c0-.1-.1-.2-.1-.3v-.2l-.2-.6Z"/><path class="cls-2" d="M198.9,24.6a2.5,2.5,0,0,0,.4.7l.2.4V21.4a1.8,1.8,0,0,0,.1-.6.9.9,0,0,1-.1-.5,3.5,3.5,0,0,0,.1-.6h0a.4.4,0,0,0-.1-.3.8.8,0,0,1,.1-.4,1.6,1.6,0,0,1,.4-.7,1.5,1.5,0,0,1,.8-.2h2.7a.9.9,0,0,1,.7.3.9.9,0,0,1,.3.6v2.5h0v6.3h0v8.8c0,.2.1.4.1.7v.8a1,1,0,0,1-.8.4h-3.4a.9.9,0,0,1-.7-.3h-.4v-.3l-.2-.7-.2-.3c0-.2-.1-.2-.1-.3v-.2a.3.3,0,0,1-.1-.2.4.4,0,0,0-.1-.3l-.5-1.5h-.1a.8.8,0,0,0-.1-.4.3.3,0,0,1-.1-.2l-.4-1a6.4,6.4,0,0,0-.2-.7c0-.1-.1-.3-.1-.4a.3.3,0,0,1-.1-.2c-.1-.2-.1-.3-.2-.4s-.2-.3-.2-.4a.3.3,0,0,1-.1-.2c-.1,0-.1.4-.1,1.2V33h0v1.1a9.4,9.4,0,0,0-.1,1.4v.2c0,.2.1.4.1.6v.4h0v1.6c-.1.2-.4.2-1,.2h-.1a.1.1,0,0,1-.1.1H192c-.4,0-.6-.1-.7-.4a2.8,2.8,0,0,1-.1-1.1V34a1.3,1.3,0,0,1-.1-.6v-.2h0V26.8c0-.4-.1-.8-.1-1.1a2.8,2.8,0,0,1,.1-.8v-3h0V19.6a3.8,3.8,0,0,1,.1-1.3h0c0-.1,0-.1.1-.1h3.8a.1.1,0,0,1,.1.1h1.1v.2h.1c0,.1.1.1.1.2s.2.2.2.4l.3.7.3.7c0,.2.1.3.1.2h.1V21c0,.2.1.3.2.6a1.9,1.9,0,0,1,.2.7v.3h.1a.4.4,0,0,1,.1.3.4.4,0,0,1,.1.3c.1.1.1.1.1.2l.2.7Z"/><path class="cls-2" d="M218.4,36v.2a.3.3,0,0,0-.1.2c0,.2-.2.4-.4.7a2.9,2.9,0,0,1-1.1,1.1l-.8.3h-.5l-.5.2h-5.3l-1-.3h-.5l-.4-.2-.6-.4-.2-.3v-.2l-.2-.3a2.6,2.6,0,0,1-.3-1.4v-.7c0-.3-.1-.6-.1-1V31a8.2,8.2,0,0,0-.1-1.9V24.9H206v-.6a1.1,1.1,0,0,1,.1-.5V22.2a.4.4,0,0,0,.1-.3v-.3c.1-.1.1-.2.1-.4a1.9,1.9,0,0,1,.4-.9,2.4,2.4,0,0,1,.6-.9l.4-.4.4-.2.3-.2h2.1c.5,0,.7,0,.7-.1h4.3l.8.2,1,.5.5.5.3.5c.1.2.1.4.2.5v.3a.3.3,0,0,0,.1.2c.1.1.1.3.1.6s.1.7.1,1.2v3c0,.4-.1.6-.3.7a1.5,1.5,0,0,1-.8.2h-3a1,1,0,0,1-.7-.2.7.7,0,0,1-.1-.5v-.3a.4.4,0,0,1,.1-.3c0-.8-.1-1.3-.1-1.6a4.1,4.1,0,0,1-.3-.8c0-.1-.2-.2-.4-.3h-1.1a1,1,0,0,0-.5.7,2.8,2.8,0,0,0-.3,1.3v.9h0v1.5a2.8,2.8,0,0,0-.1.8c0,.4.1.9.1,1.3a6.1,6.1,0,0,0,.1,1.4v1.3c0,.3.1.6.1.8a1.6,1.6,0,0,0,.5,1,.9.9,0,0,0,.7.4h.7l.6-.2c.1-.2.1-.5.2-.8v-.9h-1.8V29.5c0-.3,0-.5.1-.6v-.7h6l.2.3c.1.1.1.2.1.4s.1.3.2.4v.7a.4.4,0,0,1-.1.3v1a4.3,4.3,0,0,0-.1.5V33a3.4,3.4,0,0,1-.1,1,1.5,1.5,0,0,1-.1.7V35a.8.8,0,0,1-.1.4A1.3,1.3,0,0,1,218.4,36Z"/><path class="cls-2" d="M240.7,35.4a.9.9,0,0,1-.1.5,1.3,1.3,0,0,1-.1.6,2.3,2.3,0,0,1-.5,1,2.1,2.1,0,0,1-.8.6h-.5l-.4.2H231l-.5-.2-.4-.3-.2-.2a2.2,2.2,0,0,1-.5-.8l-.2-.4v-.2h-.1v-.5a.6.6,0,0,1-.1-.4.4.4,0,0,0-.1-.3h0a2.6,2.6,0,0,0-.1-.7c0-.2-.1-.7-.1-1.5v-1a2.8,2.8,0,0,1-.1-.8V29h0a.7.7,0,0,1-.1-.5V28a3.1,3.1,0,0,1,.1-1v-.6h0V24.7h0V22.3a.7.7,0,0,0,.1-.5v-.6a5.3,5.3,0,0,1,.5-1.5,2.2,2.2,0,0,1,.7-.9l.4-.2.7-.3.5-.2h7.2l.4.2c.2.1.3.1.3.2l.4.2v.2c.2.1.3.4.4.7a6.4,6.4,0,0,1,.6,1.1V21h0a.3.3,0,0,1,.1.2v.6c0,.2.1.4.1.6v2.9a3.5,3.5,0,0,0,.1.7h-.1v.2l-.3.2h-3.5c-.7,0-1-.2-1.1-.4a.6.6,0,0,1-.1-.4v-.2a.4.4,0,0,0,.1-.3c0-.5-.1-.8-.1-1a.8.8,0,0,1-.1-.3,1,1,0,0,0-.2-.7h-.2l-.2-.2h-1c-.1,0-.1.1-.2.2v.2a.6.6,0,0,0-.2.5,1.2,1.2,0,0,1-.1.5v1.6h0v.4a.4.4,0,0,0-.1.3v3.3h0v.5h0v1.2a.4.4,0,0,0,.1.3,1.6,1.6,0,0,0,.2,1c0,.1,0,.1.1.2h.4a.6.6,0,0,0,.6,0h.5c.1,0,.1-.1.2-.2s.1-.2.1-.4a.7.7,0,0,0,.1-.5,4.5,4.5,0,0,0,.1-1.4v-.6c0-.1,0-.1.1-.2s0-.1.1-.1h4.7c.1.2.2.3.2.5h0c-.1,0-.1.1-.1.3v.2c.1,0,.1.1.1.2s0,.3-.1.4-.1.3-.1.5h0a.1.1,0,0,0,.1.1v.3h-.1v.4a4.4,4.4,0,0,1-.2,1A4.1,4.1,0,0,0,240.7,35.4Z"/><path class="cls-2" d="M249.9,26.9h.3c.1.1.1,0,.1-.2v-.6h0v-.5h0v-.2h0V19.9h0v-.9c0-.2,0-.3.1-.4l.4-.2h.4l.4-.2h3.8v.3h0v.2a1.3,1.3,0,0,1,.1.6c0,.2,0,.4.1.4v8a5.4,5.4,0,0,1,.1.8v.5c0,.2-.1.4-.1.7V32h0v.3a4.5,4.5,0,0,1,.1,1.3v3.6a1.7,1.7,0,0,1-.1.8c0,.1,0,.2-.1.2h-.6l-1.4.2h-2.3l-.5-.3c-.1-.1-.1-.3-.2-.6v-.2a4.2,4.2,0,0,1-.1-1.4v-.7a2.2,2.2,0,0,0-.1-.8V33.2a.8.8,0,0,0,.1-.4h0a.3.3,0,0,0-.3-.3h-1.2c-.3,0-.5,0-.5.1s-.2.2-.2.4v2.6a1.5,1.5,0,0,0-.1.7v1.2c0,.5-.1.8-.4.9h-4.2c-.4,0-.7-.1-.7-.3a.9.9,0,0,1-.1-.5v-.3c.1-.1.1-.2.1-.4V29.9h0v-7c-.1,0-.1-.1,0-.1V19.6a.4.4,0,0,0-.1-.3v-.5a.4.4,0,0,0,.1-.3c0-.1.2-.2.4-.2h4.5a.1.1,0,0,0,.1.1c.2,0,.2.2.2.5v.8a1.8,1.8,0,0,1,.1.6c0,.2,0,.4-.1.4v5.7a.4.4,0,0,0,.1.3h1.8Z"/><path class="cls-2" d="M257.4,33.8v-1a8.1,8.1,0,0,1-.1-1.7V25.2c0-.2-.1-.3-.1-.4V24h0v-.4h0V18.6l.3-.2h4.2a1,1,0,0,1,.5.6.3.3,0,0,1,.1.2.1.1,0,0,1,.1.1v2.5c0,.3.1.6.1.8v1.2h0c-.1,0-.1,0-.1.1h0c.1,0,.1.1.1.3h-.1v.2a1,1,0,0,1,.1.3c0,.8,0,1.2-.1,1.3V31a9.9,9.9,0,0,1,.1,1.5c.3.9.5,1.3.8,1.3h1.6a.3.3,0,0,1,.1-.2c0-.1.1-.2.1-.3a.4.4,0,0,0,.1-.3v-1c0-.2,0-.5.1-.6V26.4a6.2,6.2,0,0,0-.1-1.3V21.7h0V19.4a1.9,1.9,0,0,1,.2-.8l.3-.3,1.1-.2h1.8a2.2,2.2,0,0,1,1.5.4.9.9,0,0,1,.3.6,2.2,2.2,0,0,1,.1.9v8.8c-.1,0-.1.2-.1.5a8.1,8.1,0,0,0,.1,1.6v1.8a2.5,2.5,0,0,0-.1.8v.7a1.8,1.8,0,0,1-.1.6,6.3,6.3,0,0,1-.7,1.9c-.1.1-.1.1-.1.2a1.9,1.9,0,0,1-.9.9h-.1l-.3.2-.4.2h-.7l-.7.3H260a3.9,3.9,0,0,1-1.9-1.9,1.9,1.9,0,0,1-.3-.9.3.3,0,0,1-.1-.2V35a1.8,1.8,0,0,0-.1-.6A1.8,1.8,0,0,1,257.4,33.8Zm8.9-21.2.5.4a2.8,2.8,0,0,1,.3,1.5,1.5,1.5,0,0,1-.5.8l-.3.2-.5.4a1.6,1.6,0,0,0-.4.7l-.5.7h-1.2l-.6-.3c-.2,0-.3-.1-.4-.3h-.1v-.2c-.1,0-.1-.1,0-.2s.1-.3.1-.4l.5-.5.4-.4h.1v-.2h-1.1a1.9,1.9,0,0,1-.5-1v-.5a.8.8,0,0,1,.2-.6c.2-.2.5-.2.8-.3h2.8Z"/><rect class="cls-1" width="52.9" height="52.91" rx="13.1"/><path class="cls-2" d="M11.9,25.1,24.7,12.8a1.9,1.9,0,0,1,2.7-.1L41,25.1a2,2,0,0,1-1.4,3.5H38.4a1.1,1.1,0,0,0-1.1,1v9.1a2,2,0,0,1-2,2h-18a2,2,0,0,1-2-2V29.6a1,1,0,0,0-1-1h-1A2,2,0,0,1,11.9,25.1Z"/></g></g></g></svg>